<svg xmlns="http://www.w3.org/2000/svg" width="23px" height="23px" viewBox="0 0 1024 1024">
    <path d="M426.667 42.667h170.667l42.667 42.667-42.667 42.667h256l42.667 42.667v768l-42.667 42.667h-682.667l-42.667-42.667v-768l42.667-42.667h256l-42.667-42.667 42.667-42.667zM213.333 896h597.333v-682.667h-597.333v682.667zM469.333 426.667v-85.333h256v85.333h-256zM298.667 426.667v-85.333h85.333v85.333h-85.333zM469.333 597.333v-85.333h256v85.333h-256zM298.667 597.333v-85.333h85.333v85.333h-85.333zM469.333 768v-85.333h256v85.333h-256zM298.667 768v-85.333h85.333v85.333h-85.333z"></path>
</svg>
